<svg version="1.2" xmlns="http://www.w3.org/2000/svg" viewBox="0 0 141 41" width="141" height="41">
	<title>download-svg</title>
	<style>
		.s0 { fill: #000000 } 
	</style>
	<path id="Layer" fill-rule="evenodd" class="s0" d="m140.2 39.6l-8.4-5.3-7.7 4.8-7.7-4.8-7.6 4.7-7.7-4.8-7.7 4.8-7.7-4.8-7.9 5-7.7-4.8-7.5 4.6-7.8-4.9-7.6 4.9-7.7-4.8-7.7 4.9-7.7-4.8-7.8 4.9-7.7-4.8-8.4 5.3v-34l8.4-5.3 7.7 4.8 7.8-4.9 7.7 4.8 7.7-4.9 7.7 4.8 7.7-4.8 7.8 4.9 7.5-4.6 7.7 4.8 7.9-5 7.7 4.8 7.7-4.8 7.7 4.8 7.6-4.7 7.7 4.8 7.7-4.8 8.4 5.3v33.9zm-69.9-6.9l7.7 4.8 7.9-5 7.7 4.8 7.7-4.8 7.7 4.8 7.6-4.7 7.7 4.8 7.7-4.8 7 4.4v-30.5l-7-4.4-7.9 4.9-7.7-4.8-7.6 4.7-7.7-4.8-7.7 4.8-7.7-4.8-7.9 5-7.7-4.8-7.4 4.7-7.8-4.9-7.7 4.8-7.7-4.8-7.7 4.9-7.7-4.8-7.7 4.8-7.7-4.8-7 4.3v30.4l6.9-4.3 7.7 4.8 7.8-4.9 7.7 4.8 7.7-4.9 7.7 4.8 7.7-4.8 7.8 4.9z"/>
	<path id="Layer" fill-rule="evenodd" class="s0" d="m140.5 40.1l-8.7-5.4-7.7 4.8-7.7-4.8-7.6 4.7-7.7-4.8-7.7 4.8-7.7-4.8-7.9 5-7.7-4.8-7.5 4.6-0.1-0.1-7.7-4.8-7.7 4.8-7.7-4.8-7.8 4.9-7.7-4.8-7.8 4.9-7.7-4.8-8.4 5.4v-34.5l8.7-5.4 7.7 4.8 7.8-4.9 7.7 4.8 7.7-4.9 7.7 4.8 7.6-4.8 7.8 4.9 7.5-4.6 0.1 0.1 7.5 4.7 7.9-5 7.7 4.8 7.7-4.8 7.7 4.8 7.6-4.7 7.7 4.8 7.7-4.8 8.7 5.4zm-140-34.3v33.3l8.2-5.1 7.7 4.8 7.8-4.9 7.7 4.8 7.7-4.9 7.7 4.8 7.7-4.8 7.8 4.9 7.5-4.6 7.7 4.8 7.9-5 7.7 4.8 7.7-4.8 7.7 4.8 7.6-4.7 7.7 4.8 7.7-4.8 8.2 5.1v-33.3l-8.2-5.1-7.7 4.8-7.7-4.8-7.6 4.7-7.7-4.8-7.7 4.8-7.7-4.8-7.9 5-0.1-0.1-7.5-4.7-7.5 4.6-7.8-4.9-7.7 4.8-0.1-0.1-7.5-4.7-7.8 4.9-7.7-4.8-7.8 4.9-7.8-4.8zm77.4 32l-7.6-4.8-7.5 4.6-7.8-4.9-7.7 4.8-7.7-4.8-7.7 4.9-7.7-4.8-7.8 4.9-7.7-4.8-7.2 4.5v-31l7.2-4.5 7.7 4.8 7.8-4.9 7.7 4.8 7.7-4.9 7.7 4.8 7.7-4.8 7.8 4.9 7.5-4.6 7.7 4.8 7.9-5 7.7 4.8 7.7-4.8 7.7 4.8 7.6-4.7 7.7 4.8 7.7-4.8 7.2 4.5v31l-7.2-4.5-7.7 4.8-0.1-0.1-7.5-4.7-7.6 4.7-7.7-4.8-7.7 4.8-7.7-4.8zm-7.6-5.4l7.7 4.8 7.9-5 7.7 4.8 7.7-4.8 7.7 4.8 7.6-4.7 7.7 4.8 7.7-4.8 6.7 4.2v-29.8l-6.7-4.2-7.7 4.8-7.7-4.8-7.6 4.7-7.7-4.8-7.7 4.8-7.7-4.8-7.9 5-7.7-4.8-7.5 4.6-7.8-4.9-7.7 4.8-7.7-4.8-7.8 4.9-7.7-4.8-7.8 4.9-7.6-4.8-6.7 4.2v29.8l6.7-4.2 7.7 4.8 7.8-4.9 7.7 4.8 7.7-4.9 7.7 4.8 7.7-4.8 7.8 4.9z"/>
</svg>